<svg xmlns="http://www.w3.org/2000/svg" viewBox="0 0 343.808 323.171"><defs><style>.prefix__cls-1{fill:#fff}.prefix__cls-2{fill:#fe9667}.prefix__cls-3{fill:#fe5001}.prefix__cls-4{fill:#0a1322}</style></defs><path class="prefix__cls-1" d="M57.826 105.413a1.258 1.258 0 011.147.735l2.743 5.968h87.743a14.228 14.228 0 0014.228-14.229V45.966a14.228 14.228 0 00-14.228-14.229H32.479a14.228 14.228 0 00-14.23 14.229v51.921a14.228 14.228 0 0014.23 14.229h21.458l2.743-5.968a1.258 1.258 0 011.146-.735zm37.177-50.165h54.628a1.262 1.262 0 110 2.524H95.003a1.262 1.262 0 110-2.524zm0 14.458h54.628a1.262 1.262 0 010 2.524H95.003a1.262 1.262 0 010-2.524zm0 14.458h31.909a1.262 1.262 0 010 2.523H95.003a1.262 1.262 0 010-2.523zM35.29 72a23.465 23.465 0 1123.465 23.465A23.465 23.465 0 0135.29 72z"/><path class="prefix__cls-2" d="M73.562 86.808a20.94 20.94 0 10-14.807 6.133 20.87 20.87 0 0014.807-6.133z"/><path class="prefix__cls-1" d="M87.735 210.77c-7.735 2.846-18.271 4.572-29.909 4.575a102.655 102.655 0 01-21.007-2.062 50.289 50.289 0 01-15.292-5.514 15.362 15.362 0 01-5.636-5.334 8.532 8.532 0 01-.355-.733L1.444 232.36a1.262 1.262 0 01-.089.315 7.28 7.28 0 00-.636 2.913 7.59 7.59 0 001.027 3.72 14.106 14.106 0 003.127 3.698 39.424 39.424 0 0012.116 6.603c10.37 3.824 24.847 6.224 40.837 6.221a150.593 150.593 0 0018.712-1.139 67.555 67.555 0 0121.627-35.557 56.472 56.472 0 01-6.617-9.977q-1.772.857-3.813 1.613z"/><path class="prefix__cls-2" d="M17.833 196.792a4.835 4.835 0 00-.424 1.936 5.059 5.059 0 00.688 2.482 9.717 9.717 0 002.154 2.543 27.81 27.81 0 008.54 4.648c7.35 2.712 17.654 4.423 29.035 4.42a100.163 100.163 0 0020.485-2.007 54.011 54.011 0 0012.118-3.925 56.534 56.534 0 01-4.083-35.147l-2.242-4.877a8.434 8.434 0 01-1.552 1.76 19.255 19.255 0 01-5.95 3.27 56.29 56.29 0 01-18.776 2.876 64.355 64.355 0 01-13.17-1.293 31.744 31.744 0 01-9.664-3.49 10.436 10.436 0 01-3.435-3.14L17.903 196.55a1.257 1.257 0 01-.07.24z"/><path class="prefix__cls-3" d="M33.422 162.79a1.248 1.248 0 01-.044.15 2.526 2.526 0 00-.224 1.014 2.671 2.671 0 00.368 1.313 5.579 5.579 0 001.237 1.455 16.855 16.855 0 005.165 2.805 53.861 53.861 0 0017.902 2.72 61.853 61.853 0 0012.648-1.238 29.357 29.357 0 008.878-3.179 7.613 7.613 0 002.78-2.563 2.672 2.672 0 00.367-1.313 2.534 2.534 0 00-.224-1.015 1.254 1.254 0 01-.044-.15l-24.405-53.093z"/><path class="prefix__cls-1" d="M195.824 135.753a6.657 6.657 0 001.47-1.11 23.828 23.828 0 003.325-4.314c2.286-3.592 4.613-8.283 6.928-12.412a43.121 43.121 0 014.692-7.094 9.326 9.326 0 012.958-2.392 4.443 4.443 0 011.862-.431 7.396 7.396 0 014.188 1.377 17.19 17.19 0 013.248 3.038c1.971 2.29 3.77 4.89 5.714 6.484a6.274 6.274 0 004.046 1.675 2.842 2.842 0 001.41-.413 7.03 7.03 0 001.638-1.362 25.69 25.69 0 003.493-5.274c2.332-4.385 4.588-10.1 6.881-15.124a47.394 47.394 0 014.762-8.618 9.695 9.695 0 013.197-2.897c.116-.058.236-.106.356-.156V20.568a14.1 14.1 0 01-.853.814A27.269 27.269 0 01246.721 26c-6.97 2.565-16.45 4.117-26.92 4.12a92.372 92.372 0 01-18.902-1.856 45.311 45.311 0 01-13.78-4.97 17.472 17.472 0 01-3.506-2.725v105.74a56.6 56.6 0 0112.026 9.518c.063-.029.119-.04.185-.074z"/><path class="prefix__cls-3" d="M231.983 244.686v-22.859c0-.029.015-.055.017-.084a1.247 1.247 0 01.065-.327 1.223 1.223 0 01.052-.128 1.24 1.24 0 01.187-.28c.02-.023.028-.052.048-.073.007-.007.018-.01.025-.016.01-.01.016-.022.026-.032l23.589-21.127v-.175a47.135 47.135 0 01-18.29-37.309 1.173 1.173 0 01.027-.136c-.007-.134-.027-.267-.027-.401a8.237 8.237 0 011.092-4.026 13.335 13.335 0 012.953-3.517 33.192 33.192 0 0110.243-5.616c1.265-.465 2.606-.9 4.002-1.309v-57.61a8.052 8.052 0 00-.998.977 27.227 27.227 0 00-3.328 5.287c-2.25 4.395-4.492 10.118-6.842 15.15a43.685 43.685 0 01-4.977 8.638 9.958 9.958 0 01-3.406 2.884 5.185 5.185 0 01-2.186.501 7.977 7.977 0 01-3.936-1.065 13.868 13.868 0 01-3.117-2.49c-1.868-1.927-3.459-4.224-5.075-5.996a10.584 10.584 0 00-3.205-2.598 4.39 4.39 0 00-1.863-.425 2.132 2.132 0 00-1.03.314 6.431 6.431 0 00-1.383 1.102 24.957 24.957 0 00-3.205 4.323c-2.23 3.6-4.545 8.297-6.903 12.433a40.366 40.366 0 01-4.85 7.108 10.99 10.99 0 01-2.28 1.95 56.312 56.312 0 011.587 72.373 67.446 67.446 0 0124.344 51.926v.279c3.002-.105 5.9-.338 8.644-.69V245.78a1.161 1.161 0 010-1.095z"/><path class="prefix__cls-2" d="M186.123 19.479a24.87 24.87 0 007.633 4.153c6.585 2.43 15.832 3.966 26.046 3.964a89.879 89.879 0 0018.38-1.801 42.922 42.922 0 0012.995-4.66 11.52 11.52 0 004.212-3.907 4.204 4.204 0 000-4.336 8.604 8.604 0 00-1.907-2.252 24.868 24.868 0 00-7.634-4.153c-6.585-2.43-15.832-3.966-26.046-3.963a89.868 89.868 0 00-18.38 1.8 42.918 42.918 0 00-12.995 4.66 11.52 11.52 0 00-4.212 3.908 4.204 4.204 0 000 4.336 8.605 8.605 0 001.908 2.25z"/><path class="prefix__cls-1" d="M141.575 239.538a56.24 56.24 0 01-41.758-18.496 65.532 65.532 0 00-3.529 3.253 64.872 64.872 0 00-19.062 46.02v2.368a8.8 8.8 0 001.19 4.313 16.202 16.202 0 003.591 4.25c3.184 2.777 7.92 5.363 13.825 7.536 11.814 4.356 28.284 7.084 46.476 7.081a160.18 160.18 0 0032.762-3.21c9.625-2.037 17.686-4.954 23.323-8.375 3.761-2.277 6.423-4.776 7.808-7.282a8.8 8.8 0 001.19-4.313v-2.368a64.873 64.873 0 00-19.063-46.02 65.544 65.544 0 00-4.366-3.98 56.238 56.238 0 01-42.387 19.223z"/><path class="prefix__cls-1" d="M141.575 237.015a53.862 53.862 0 10-38.086-15.776 53.687 53.687 0 0038.086 15.776zm148.306 9.48a7.649 7.649 0 01-6.79 6.924v15.869h20.967v-22.793zm-.198-2.524h14.375V223.09h-20.966v15.121a7.65 7.65 0 016.59 5.761zm-9.115-5.611v-15.27h-22.793v20.881h17.072a7.65 7.65 0 015.72-5.611zm-26.186 24.588a7.704 7.704 0 01.87.053v-16.506h-20.745v22.793h12.345a7.647 7.647 0 017.53-6.34zm3.393 14.5v15.245h22.793v-20.882h-18.64a7.646 7.646 0 01-4.153 5.637zm25.317-5.637h20.966v20.882h-20.966zm-36.255 0h-12.33v20.882h20.744v-14.496a7.732 7.732 0 01-.869.053 7.646 7.646 0 01-7.545-6.439zm27.812-25.316h-16.874v17.255a7.648 7.648 0 014.138 5.538h18.655V253.27a7.648 7.648 0 01-5.92-6.775zm-40.142-23.406h20.745v20.882h-20.745z"/><path class="prefix__cls-3" d="M306.582 291.131l32.897-29.465v-68.739l-32.897 29.464v68.74z"/><path class="prefix__cls-1" d="M284.928 206.979a44.684 44.684 0 0044.299-38.778c-.35.368-.716.73-1.118 1.08a33.192 33.192 0 01-10.243 5.616c-8.51 3.132-20.118 5.035-32.938 5.038a113.082 113.082 0 01-23.14-2.271c-6.837-1.451-12.612-3.515-16.824-6.065a20.993 20.993 0 01-4.334-3.387 44.685 44.685 0 0044.298 38.767z"/><path class="prefix__cls-2" d="M274.03 146.559a100.765 100.765 0 00-11.72 1.724c-6.638 1.403-12.188 3.416-16.038 5.754a14.41 14.41 0 00-5.271 4.901 5.445 5.445 0 000 5.6 10.846 10.846 0 002.404 2.84 30.792 30.792 0 009.458 5.15c8.125 2.998 19.5 4.886 32.065 4.883a110.583 110.583 0 0022.617-2.216c6.639-1.404 12.189-3.417 16.038-5.754a14.41 14.41 0 005.272-4.902 5.445 5.445 0 000-5.6 10.847 10.847 0 00-2.404-2.84 30.793 30.793 0 00-9.458-5.15 84.047 84.047 0 00-20.596-4.345 20.752 20.752 0 01-22.368-.045zm24.394 11.232a6.315 6.315 0 012.318 2.22 3.45 3.45 0 010 3.455 5.197 5.197 0 01-1.15 1.378 11.654 11.654 0 01-3.61 1.99 33.102 33.102 0 01-11.054 1.699 37.794 37.794 0 01-7.736-.76 18.884 18.884 0 01-5.76-2.087 6.313 6.313 0 01-2.318-2.22 3.45 3.45 0 010-3.455 5.2 5.2 0 011.149-1.377 11.656 11.656 0 013.61-1.991 33.099 33.099 0 0111.055-1.699 37.778 37.778 0 017.736.76 18.89 18.89 0 015.76 2.087z"/><path class="prefix__cls-3" d="M254.382 265.472a5.127 5.127 0 103.626 1.502 5.105 5.105 0 00-3.626-1.502z"/><path class="prefix__cls-2" d="M282.265 240.688a5.127 5.127 0 103.625 1.501 5.105 5.105 0 00-3.625-1.501z"/><path class="prefix__cls-1" d="M298.217 141.958a18.338 18.338 0 10-12.967 5.371 18.274 18.274 0 0012.967-5.37z"/><path class="prefix__cls-2" d="M204.267 283.148c-3.53 3.07-8.51 5.752-14.61 8.002-12.198 4.49-28.9 7.234-47.349 7.237a162.676 162.676 0 01-33.284-3.266c-9.824-2.083-18.11-5.051-24.109-8.685a26.16 26.16 0 01-7.689-6.655v17.686a8.8 8.8 0 001.19 4.313 16.202 16.202 0 003.591 4.25c3.184 2.777 7.92 5.363 13.825 7.536 11.814 4.356 28.284 7.084 46.476 7.081a160.18 160.18 0 0032.762-3.21c9.625-2.037 17.686-4.954 23.323-8.375 3.761-2.276 6.423-4.776 7.808-7.282a8.8 8.8 0 001.19-4.313v-17.684a20.538 20.538 0 01-3.124 3.365z"/><path class="prefix__cls-4" d="M82.22 72a23.465 23.465 0 10-23.465 23.465A23.465 23.465 0 0082.219 72zm-44.406 0a20.941 20.941 0 116.133 14.808A20.87 20.87 0 0137.814 72zm57.189-14.228h54.628a1.262 1.262 0 100-2.524H95.003a1.262 1.262 0 100 2.524zm0 14.458h54.628a1.262 1.262 0 000-2.524H95.003a1.262 1.262 0 000 2.524zm0 14.457h31.909a1.262 1.262 0 000-2.523H95.003a1.262 1.262 0 000 2.523z"/><path class="prefix__cls-4" d="M341.997 190.063a1.238 1.238 0 00-.023-.161 1.266 1.266 0 00-.045-.207c-.004-.014-.004-.03-.009-.043-.014-.036-.04-.064-.056-.099a1.239 1.239 0 00-.106-.187 1.264 1.264 0 00-.105-.12 1.235 1.235 0 00-.15-.14 1.261 1.261 0 00-.142-.09 1.226 1.226 0 00-.105-.066c-.024-.01-.05-.012-.074-.02a1.27 1.27 0 00-.163-.047 1.237 1.237 0 00-.204-.031c-.025-.002-.048-.012-.074-.012h-16.766a47.004 47.004 0 008.179-26.564 1.173 1.173 0 00-.028-.136c.007-.134.028-.267.028-.401a8.238 8.238 0 00-1.093-4.026 16.819 16.819 0 00-6.17-5.834c-4.211-2.55-9.986-4.615-16.823-6.066a99.819 99.819 0 00-8.772-1.43 20.86 20.86 0 10-28.171-.072 95.115 95.115 0 00-12.61 2.268V15.06a6.947 6.947 0 00-.92-3.393 13.927 13.927 0 00-5.11-4.84 45.312 45.312 0 00-13.78-4.97A92.375 92.375 0 00219.802 0c-10.47.003-19.949 1.555-26.918 4.119a27.268 27.268 0 00-8.419 4.618 11.097 11.097 0 00-2.457 2.93 6.946 6.946 0 00-.92 3.393v127.882a56.371 56.371 0 00-93.77 24.873l-2.713-5.904-21.729-47.271h86.583a16.753 16.753 0 0016.752-16.753V45.966a16.752 16.752 0 00-16.752-16.753H32.479a16.752 16.752 0 00-16.753 16.753v51.921a16.753 16.753 0 0016.752 16.753h20.299L-1.006 231.647a1.248 1.248 0 00-.102.411 9.679 9.679 0 00-.697 3.53 10.12 10.12 0 001.345 4.946c1.522 2.729 4.184 5.14 7.713 7.283 5.3 3.21 12.603 5.824 21.258 7.66a143.268 143.268 0 0029.315 2.877 153.963 153.963 0 0018.141-1.055 67.909 67.909 0 00-1.264 13.016v27.152a11.329 11.329 0 001.506 5.539c1.708 3.063 4.71 5.787 8.706 8.214 6 3.634 14.285 6.602 24.109 8.685a162.676 162.676 0 0033.284 3.266c18.448-.003 35.15-2.746 47.349-7.237 6.1-2.25 11.08-4.931 14.61-8.002a18.694 18.694 0 004.14-4.926 11.33 11.33 0 001.507-5.539v-27.152c0-1.99-.104-3.954-.272-5.9a100.146 100.146 0 0010.16.51 98.905 98.905 0 0012.18-.74v5.817a1.161 1.161 0 000 1.095v22.858c0 .011.007.022.007.033a1.246 1.246 0 00.077.418c.003.007.008.012.011.02.009.022.025.04.035.061a1.256 1.256 0 00.208.311c.013.015.018.036.033.05.02.02.048.028.07.046a1.26 1.26 0 00.269.18 1.228 1.228 0 00.114.055 1.257 1.257 0 00.439.088h72.075c.025 0 .047-.012.072-.013a1.239 1.239 0 00.294-.054c.034-.01.07-.013.103-.027l.031-.014a1.252 1.252 0 00.342-.214l35.421-31.725a1.256 1.256 0 00.277-.378 1.207 1.207 0 00.05-.126 1.25 1.25 0 00.077-.36c.002-.027.016-.05.016-.076v-72.128c0-.013-.005-.026-.006-.04zm-80.084 79.225a7.648 7.648 0 00-4.138-5.538v-17.255h16.874a7.648 7.648 0 005.919 6.775v16.018zm-27.406 0v-22.793h20.744v16.506a7.61 7.61 0 00-8.399 6.287zm55.176-25.317a7.65 7.65 0 00-6.591-5.76v-15.122h20.966v20.882zm-11.043 5.469a5.127 5.127 0 113.625 1.501 5.105 5.105 0 01-3.625-1.501zm-20.865-5.469V223.09h22.793v15.27a7.65 7.65 0 00-5.72 5.612zm-2.524 0h-20.744V223.09h20.744zm-4.494 23.003a5.127 5.127 0 11-1.501 3.625 5.105 5.105 0 011.501-3.625zm32.335-13.555a7.649 7.649 0 006.79-6.924h14.176v22.793h-20.966zm33.445-59.534a44.692 44.692 0 01-75.907-25.673 20.993 20.993 0 004.334 3.387c4.212 2.55 9.987 4.614 16.823 6.065a113.082 113.082 0 0023.14 2.27c12.821-.002 24.428-1.905 32.939-5.037a33.192 33.192 0 0010.243-5.615c.402-.351.768-.713 1.118-1.081a44.565 44.565 0 01-12.69 25.684zm-49.624-64.893a18.337 18.337 0 115.37 12.966 18.274 18.274 0 01-5.37-12.966zm-4.603 19.29a100.765 100.765 0 0111.72-1.723 20.752 20.752 0 0022.367.045 84.047 84.047 0 0120.596 4.344 30.793 30.793 0 019.458 5.15 10.847 10.847 0 012.404 2.84 5.445 5.445 0 010 5.6 14.41 14.41 0 01-5.272 4.903c-3.85 2.337-9.4 4.35-16.038 5.754a110.583 110.583 0 01-22.617 2.216c-12.565.003-23.94-1.885-32.065-4.882a30.792 30.792 0 01-9.458-5.15 10.846 10.846 0 01-2.404-2.84 5.445 5.445 0 010-5.6 14.41 14.41 0 015.271-4.902c3.85-2.338 9.4-4.35 16.038-5.754zm-78.095-135.39a11.52 11.52 0 014.212-3.908 42.918 42.918 0 0112.995-4.66 89.868 89.868 0 0118.38-1.8c10.214-.003 19.46 1.534 26.046 3.963a24.868 24.868 0 017.634 4.153 8.604 8.604 0 011.908 2.252 4.204 4.204 0 010 4.336 11.52 11.52 0 01-4.213 3.907 42.922 42.922 0 01-12.995 4.66 89.879 89.879 0 01-18.38 1.8c-10.214.003-19.46-1.533-26.046-3.963a24.87 24.87 0 01-7.633-4.153 8.605 8.605 0 01-1.908-2.251 4.204 4.204 0 010-4.336zm2.903 10.401a45.311 45.311 0 0013.78 4.971 92.372 92.372 0 0018.904 1.855c10.47-.002 19.949-1.554 26.919-4.119a27.269 27.269 0 008.418-4.618c.304-.265.584-.537.853-.814V86.73c-.12.05-.24.098-.356.156a9.695 9.695 0 00-3.197 2.897 47.394 47.394 0 00-4.762 8.618c-2.293 5.024-4.55 10.739-6.881 15.124a25.69 25.69 0 01-3.493 5.274 7.03 7.03 0 01-1.639 1.362 2.842 2.842 0 01-1.409.413 6.274 6.274 0 01-4.046-1.675c-1.945-1.594-3.743-4.195-5.714-6.484a17.19 17.19 0 00-3.248-3.038 7.396 7.396 0 00-4.188-1.377 4.443 4.443 0 00-1.862.43 9.326 9.326 0 00-2.958 2.393 43.121 43.121 0 00-4.692 7.094c-2.315 4.129-4.642 8.82-6.928 12.412a23.828 23.828 0 01-3.324 4.315 6.657 6.657 0 01-1.471 1.109c-.066.034-.122.045-.185.074a56.6 56.6 0 00-12.026-9.517V20.569a17.472 17.472 0 003.505 2.724zM103.49 145.067a53.861 53.861 0 11-15.776 38.086 53.688 53.688 0 0115.776-38.086zm-19.385 21.798l2.242 4.877a56.534 56.534 0 004.083 35.147 54.011 54.011 0 01-12.118 3.925 100.163 100.163 0 01-20.485 2.007c-11.381.003-21.685-1.708-29.035-4.42a27.81 27.81 0 01-8.54-4.648 9.717 9.717 0 01-2.154-2.543 5.059 5.059 0 01-.688-2.482 4.835 4.835 0 01.424-1.936 1.257 1.257 0 00.07-.24l13.654-29.704a10.436 10.436 0 003.435 3.14 31.744 31.744 0 009.664 3.49 64.355 64.355 0 0013.17 1.293 56.29 56.29 0 0018.776-2.876 19.255 19.255 0 005.95-3.27 8.434 8.434 0 001.552-1.76zm-1.873-4.076a1.254 1.254 0 00.044.15 2.534 2.534 0 01.224 1.015 2.672 2.672 0 01-.368 1.313 7.613 7.613 0 01-2.779 2.563 29.357 29.357 0 01-8.878 3.179 61.853 61.853 0 01-12.648 1.239 53.861 53.861 0 01-17.902-2.721 16.855 16.855 0 01-5.165-2.805 5.579 5.579 0 01-1.237-1.455 2.671 2.671 0 01-.368-1.313 2.526 2.526 0 01.224-1.014 1.248 1.248 0 00.044-.15l24.404-53.094zm-49.753-50.673A14.228 14.228 0 0118.25 97.887V45.966a14.228 14.228 0 0114.228-14.229h116.98a14.228 14.228 0 0114.229 14.229v51.921a14.228 14.228 0 01-14.228 14.229H61.716l-2.743-5.968a1.262 1.262 0 00-2.293 0l-2.743 5.968zM57.826 255.83c-15.99.003-30.466-2.397-40.837-6.22a39.424 39.424 0 01-12.116-6.604 14.106 14.106 0 01-3.127-3.697 7.59 7.59 0 01-1.027-3.721 7.28 7.28 0 01.636-2.913 1.262 1.262 0 00.089-.315l14.092-30.658c.108.248.221.494.355.733a15.362 15.362 0 005.636 5.334 50.289 50.289 0 0015.292 5.514 102.655 102.655 0 0021.007 2.062c11.638-.003 22.174-1.729 29.909-4.575q2.043-.754 3.813-1.613a56.472 56.472 0 006.617 9.977 67.555 67.555 0 00-21.627 35.557 150.593 150.593 0 01-18.712 1.14zm149.564 41.637a8.8 8.8 0 01-1.189 4.313c-1.385 2.506-4.047 5.006-7.808 7.282-5.637 3.422-13.698 6.338-23.323 8.375a160.18 160.18 0 01-32.762 3.21c-18.192.003-34.662-2.725-46.476-7.08-5.905-2.174-10.64-4.76-13.825-7.538a16.202 16.202 0 01-3.591-4.249 8.8 8.8 0 01-1.19-4.313v-17.686a26.16 26.16 0 007.69 6.655c5.998 3.634 14.284 6.602 24.108 8.685a162.676 162.676 0 0033.284 3.266c18.448-.003 35.15-2.746 47.349-7.237 6.1-2.25 11.08-4.931 14.61-8.002a20.538 20.538 0 003.123-3.365zm-1.189-20.471c-1.385 2.506-4.047 5.005-7.808 7.282-5.637 3.421-13.698 6.338-23.323 8.374a160.18 160.18 0 01-32.762 3.211c-18.192.003-34.662-2.725-46.476-7.081-5.905-2.173-10.64-4.759-13.825-7.537a16.202 16.202 0 01-3.591-4.249 8.8 8.8 0 01-1.19-4.313v-2.368a64.872 64.872 0 0119.063-46.02 65.543 65.543 0 013.528-3.253 56.364 56.364 0 0084.145-.726 65.544 65.544 0 014.366 3.979 64.873 64.873 0 0119.062 46.02v2.368a8.8 8.8 0 01-1.189 4.313zm17.138-14.664v-.279a67.446 67.446 0 00-24.344-51.926 56.312 56.312 0 00-1.587-72.374 10.99 10.99 0 002.28-1.949 40.366 40.366 0 004.85-7.108c2.358-4.136 4.673-8.833 6.903-12.433a24.957 24.957 0 013.205-4.323 6.431 6.431 0 011.382-1.102 2.132 2.132 0 011.03-.314 4.39 4.39 0 011.863.425 10.584 10.584 0 013.205 2.598c1.617 1.772 3.208 4.069 5.076 5.996a13.868 13.868 0 003.116 2.49 7.977 7.977 0 003.937 1.065 5.185 5.185 0 002.186-.5 9.958 9.958 0 003.405-2.885 43.685 43.685 0 004.978-8.637c2.35-5.033 4.591-10.756 6.842-15.151a27.227 27.227 0 013.328-5.287 8.052 8.052 0 01.998-.978v57.611c-1.396.41-2.737.844-4.002 1.31a33.192 33.192 0 00-10.243 5.615 13.335 13.335 0 00-2.953 3.517 8.237 8.237 0 00-1.092 4.026c0 .134.02.267.027.4a1.173 1.173 0 00-.027.137 47.135 47.135 0 0018.29 37.31v.174l-23.59 21.127c-.01.01-.015.022-.025.032-.007.007-.018.009-.025.016-.02.02-.029.05-.048.072a1.24 1.24 0 00-.187.281 1.223 1.223 0 00-.052.128 1.247 1.247 0 00-.065.327c-.002.029-.017.055-.017.084v22.859a1.161 1.161 0 000 1.095v15.86a93.792 93.792 0 01-8.644.691zm11.168 30.361v-20.882h12.33a7.646 7.646 0 007.545 6.439 7.732 7.732 0 00.87-.053v14.496h-20.745zm23.268-15.245a7.646 7.646 0 004.153-5.637h18.64v20.882h-22.793zm25.317-5.637h20.966v20.882h-20.966zm56.387-10.145l-32.897 29.465v-68.74l32.897-29.465z"/><path class="prefix__cls-4" d="M271.431 165.686a18.884 18.884 0 005.761 2.086 37.794 37.794 0 007.736.76 33.102 33.102 0 0011.054-1.697 11.654 11.654 0 003.61-1.991 5.197 5.197 0 001.15-1.378 3.45 3.45 0 000-3.455 6.315 6.315 0 00-2.318-2.22 18.89 18.89 0 00-5.76-2.086 37.778 37.778 0 00-7.736-.76 33.099 33.099 0 00-11.054 1.698 11.656 11.656 0 00-3.611 1.99 5.2 5.2 0 00-1.15 1.378 3.45 3.45 0 000 3.455 6.313 6.313 0 002.318 2.22z"/></svg>